<svg width="18" height="18" viewBox="0 0 18 18" fill="none" xmlns="http://www.w3.org/2000/svg">
  <path d="M1.77599 1.07757C2.4158 0.650058 3.16801 0.421877 3.9375 0.421877C4.96936 0.421877 5.95896 0.831781 6.68859 1.56141C7.41822 2.29105 7.82813 3.28064 7.82813 4.3125C7.82813 5.082 7.59995 5.83421 7.17244 6.47402C6.74493 7.11383 6.1373 7.6125 5.42638 7.90697C4.71546 8.20144 3.93319 8.27849 3.17848 8.12837C2.42377 7.97825 1.73053 7.6077 1.18641 7.06359C0.642301 6.51948 0.271755 5.82623 0.121634 5.07153C-0.0284866 4.31682 0.0485607 3.53454 0.343033 2.82362C0.637505 2.11271 1.13618 1.50507 1.77599 1.07757ZM2.97393 5.75458C3.25915 5.94516 3.59448 6.04688 3.9375 6.04688C4.39749 6.04688 4.83863 5.86415 5.16389 5.53889C5.48915 5.21363 5.67188 4.77249 5.67188 4.3125C5.67188 3.96948 5.57016 3.63415 5.37958 3.34893C5.18901 3.06372 4.91813 2.84142 4.60122 2.71015C4.2843 2.57888 3.93558 2.54453 3.59914 2.61145C3.26271 2.67837 2.95367 2.84356 2.71111 3.08611C2.46856 3.32867 2.30337 3.63771 2.23645 3.97414C2.16953 4.31058 2.20388 4.6593 2.33515 4.97622C2.46642 5.29313 2.68872 5.56401 2.97393 5.75458ZM15.474 7.54744C14.8342 7.97495 14.082 8.20313 13.3125 8.20313C12.2806 8.20313 11.291 7.79322 10.5614 7.06359C9.83178 6.33396 9.42188 5.34436 9.42188 4.3125C9.42188 3.54301 9.65006 2.7908 10.0776 2.15099C10.5051 1.51118 11.1127 1.01251 11.8236 0.718033C12.5345 0.423561 13.3168 0.346513 14.0715 0.496634C14.8262 0.646755 15.5195 1.0173 16.0636 1.56141C16.6077 2.10553 16.9783 2.79877 17.1284 3.55348C17.2785 4.30819 17.2014 5.09046 16.907 5.80138C16.6125 6.5123 16.1138 7.11993 15.474 7.54744ZM14.2761 2.87042C13.9909 2.67985 13.6555 2.57813 13.3125 2.57813C12.8525 2.57813 12.4114 2.76086 12.0861 3.08611C11.7609 3.41137 11.5781 3.85252 11.5781 4.3125C11.5781 4.65553 11.6798 4.99085 11.8704 5.27607C12.061 5.56129 12.3319 5.78358 12.6488 5.91486C12.9657 6.04613 13.3144 6.08047 13.6509 6.01355C13.9873 5.94663 14.2963 5.78145 14.5389 5.53889C14.7814 5.29633 14.9466 4.9873 15.0136 4.65086C15.0805 4.31443 15.0461 3.9657 14.9149 3.64879C14.7836 3.33187 14.5613 3.061 14.2761 2.87042ZM1.77599 10.4526C2.4158 10.0251 3.16801 9.79688 3.9375 9.79688C4.96936 9.79688 5.95896 10.2068 6.68859 10.9364C7.41822 11.666 7.82813 12.6556 7.82813 13.6875C7.82813 14.457 7.59995 15.2092 7.17244 15.849C6.74493 16.4888 6.1373 16.9875 5.42638 17.282C4.71546 17.5764 3.93319 17.6535 3.17848 17.5034C2.42377 17.3533 1.73053 16.9827 1.18641 16.4386C0.642301 15.8945 0.271755 15.2012 0.121634 14.4465C-0.0284866 13.6918 0.0485607 12.9095 0.343033 12.1986C0.637505 11.4877 1.13618 10.8801 1.77599 10.4526ZM2.97393 15.1296C3.25915 15.3202 3.59448 15.4219 3.9375 15.4219C4.39749 15.4219 4.83863 15.2391 5.16389 14.9139C5.48915 14.5886 5.67188 14.1475 5.67188 13.6875C5.67188 13.3445 5.57016 13.0092 5.37958 12.7239C5.18901 12.4387 4.91813 12.2164 4.60122 12.0851C4.2843 11.9539 3.93558 11.9195 3.59914 11.9865C3.26271 12.0534 2.95367 12.2186 2.71111 12.4611C2.46856 12.7037 2.30337 13.0127 2.23645 13.3491C2.16953 13.6856 2.20388 14.0343 2.33515 14.3512C2.46642 14.6681 2.68872 14.939 2.97393 15.1296ZM11.151 10.4526C11.7908 10.0251 12.543 9.79688 13.3125 9.79688C14.3444 9.79688 15.334 10.2068 16.0636 10.9364C16.7932 11.666 17.2031 12.6556 17.2031 13.6875C17.2031 14.457 16.9749 15.2092 16.5474 15.849C16.1199 16.4888 15.5123 16.9875 14.8014 17.282C14.0905 17.5764 13.3082 17.6535 12.5535 17.5034C11.7988 17.3533 11.1055 16.9827 10.5614 16.4386C10.0173 15.8945 9.64676 15.2012 9.49664 14.4465C9.34651 13.6918 9.42356 12.9095 9.71803 12.1986C10.0125 11.4877 10.5112 10.8801 11.151 10.4526ZM12.3489 15.1296C12.6342 15.3202 12.9695 15.4219 13.3125 15.4219C13.7725 15.4219 14.2136 15.2391 14.5389 14.9139C14.8641 14.5886 15.0469 14.1475 15.0469 13.6875C15.0469 13.3445 14.9452 13.0092 14.7546 12.7239C14.564 12.4387 14.2931 12.2164 13.9762 12.0851C13.6593 11.9539 13.3106 11.9195 12.9741 11.9865C12.6377 12.0534 12.3287 12.2186 12.0861 12.4611C11.8436 12.7037 11.6784 13.0127 11.6115 13.3491C11.5445 13.6856 11.5789 14.0343 11.7101 14.3512C11.8414 14.6681 12.0637 14.939 12.3489 15.1296Z" fill="#475569" stroke="#475569" stroke-width="0.09375" />
</svg>