<svg width="18" height="18" viewBox="0 0 18 18" fill="none" xmlns="http://www.w3.org/2000/svg">
<path d="M2.15099 1.07757C2.7908 0.650058 3.54301 0.421877 4.3125 0.421877C5.34436 0.421877 6.33396 0.831781 7.06359 1.56141C7.79322 2.29105 8.20313 3.28064 8.20313 4.3125C8.20313 5.082 7.97495 5.83421 7.54744 6.47402C7.11993 7.11383 6.5123 7.6125 5.80138 7.90697C5.09046 8.20144 4.30819 8.27849 3.55348 8.12837C2.79877 7.97825 2.10553 7.6077 1.56141 7.06359C1.0173 6.51948 0.646755 5.82623 0.496634 5.07153C0.346513 4.31682 0.423561 3.53454 0.718033 2.82362C1.01251 2.11271 1.51118 1.50507 2.15099 1.07757ZM3.34893 5.75458C3.63415 5.94516 3.96948 6.04688 4.3125 6.04688C4.77249 6.04688 5.21363 5.86415 5.53889 5.53889C5.86415 5.21363 6.04688 4.77249 6.04688 4.3125C6.04688 3.96948 5.94516 3.63415 5.75458 3.34893C5.56401 3.06372 5.29313 2.84142 4.97622 2.71015C4.6593 2.57888 4.31058 2.54453 3.97414 2.61145C3.63771 2.67837 3.32867 2.84356 3.08611 3.08611C2.84356 3.32867 2.67837 3.63771 2.61145 3.97414C2.54453 4.31058 2.57888 4.6593 2.71015 4.97622C2.84142 5.29313 3.06372 5.56401 3.34893 5.75458ZM15.849 7.54744C15.2092 7.97495 14.457 8.20313 13.6875 8.20313C12.6556 8.20313 11.666 7.79322 10.9364 7.06359C10.2068 6.33396 9.79688 5.34436 9.79688 4.3125C9.79688 3.54301 10.0251 2.7908 10.4526 2.15099C10.8801 1.51118 11.4877 1.01251 12.1986 0.718033C12.9095 0.423561 13.6918 0.346513 14.4465 0.496634C15.2012 0.646755 15.8945 1.0173 16.4386 1.56141C16.9827 2.10553 17.3532 2.79877 17.5034 3.55348C17.6535 4.30819 17.5764 5.09046 17.282 5.80138C16.9875 6.5123 16.4888 7.11993 15.849 7.54744ZM14.6511 2.87042C14.3659 2.67985 14.0305 2.57813 13.6875 2.57813C13.2275 2.57813 12.7864 2.76086 12.4611 3.08611C12.1359 3.41137 11.9531 3.85252 11.9531 4.3125C11.9531 4.65553 12.0548 4.99085 12.2454 5.27607C12.436 5.56129 12.7069 5.78359 13.0238 5.91486C13.3407 6.04613 13.6894 6.08047 14.0259 6.01355C14.3623 5.94663 14.6713 5.78145 14.9139 5.53889C15.1564 5.29633 15.3216 4.9873 15.3886 4.65086C15.4555 4.31443 15.4211 3.9657 15.2899 3.64879C15.1586 3.33187 14.9363 3.061 14.6511 2.87042ZM2.15099 10.4526C2.7908 10.0251 3.54301 9.79688 4.3125 9.79688C5.34436 9.79688 6.33396 10.2068 7.06359 10.9364C7.79322 11.666 8.20313 12.6556 8.20313 13.6875C8.20313 14.457 7.97495 15.2092 7.54744 15.849C7.11993 16.4888 6.5123 16.9875 5.80138 17.282C5.09046 17.5764 4.30819 17.6535 3.55348 17.5034C2.79877 17.3532 2.10553 16.9827 1.56141 16.4386C1.0173 15.8945 0.646755 15.2012 0.496634 14.4465C0.346513 13.6918 0.423561 12.9095 0.718033 12.1986C1.01251 11.4877 1.51118 10.8801 2.15099 10.4526ZM3.34893 15.1296C3.63415 15.3202 3.96948 15.4219 4.3125 15.4219C4.77249 15.4219 5.21363 15.2391 5.53889 14.9139C5.86415 14.5886 6.04688 14.1475 6.04688 13.6875C6.04688 13.3445 5.94516 13.0092 5.75458 12.7239C5.56401 12.4387 5.29313 12.2164 4.97622 12.0851C4.6593 11.9539 4.31058 11.9195 3.97414 11.9865C3.63771 12.0534 3.32867 12.2186 3.08611 12.4611C2.84356 12.7037 2.67837 13.0127 2.61145 13.3491C2.54453 13.6856 2.57888 14.0343 2.71015 14.3512C2.84142 14.6681 3.06372 14.939 3.34893 15.1296ZM11.526 10.4526C12.1658 10.0251 12.918 9.79688 13.6875 9.79688C14.7194 9.79688 15.709 10.2068 16.4386 10.9364C17.1682 11.666 17.5781 12.6556 17.5781 13.6875C17.5781 14.457 17.3499 15.2092 16.9224 15.849C16.4949 16.4888 15.8873 16.9875 15.1764 17.282C14.4655 17.5764 13.6832 17.6535 12.9285 17.5034C12.1738 17.3532 11.4805 16.9827 10.9364 16.4386C10.3923 15.8945 10.0218 15.2012 9.87164 14.4465C9.72151 13.6918 9.79856 12.9095 10.093 12.1986C10.3875 11.4877 10.8862 10.8801 11.526 10.4526ZM12.7239 15.1296C13.0092 15.3202 13.3445 15.4219 13.6875 15.4219C14.1475 15.4219 14.5886 15.2391 14.9139 14.9139C15.2391 14.5886 15.4219 14.1475 15.4219 13.6875C15.4219 13.3445 15.3202 13.0092 15.1296 12.7239C14.939 12.4387 14.6681 12.2164 14.3512 12.0851C14.0343 11.9539 13.6856 11.9195 13.3491 11.9865C13.0127 12.0534 12.7037 12.2186 12.4611 12.4611C12.2186 12.7037 12.0534 13.0127 11.9865 13.3491C11.9195 13.6856 11.9539 14.0343 12.0851 14.3512C12.2164 14.6681 12.4387 14.939 12.7239 15.1296Z" fill="#475569" stroke="#475569" stroke-width="0.09375"/>
</svg>
